<?xml version="1.0" encoding="UTF-8"?>
<svg width="363px" height="134px" viewBox="0 0 363 134" version="1.1" xmlns="http://www.w3.org/2000/svg" xmlns:xlink="http://www.w3.org/1999/xlink">
    <title>img_storylane_white</title>
    <g id="img_storylane_white" stroke="none" stroke-width="1" fill="none" fill-rule="evenodd">
        <path d="M214.9178,40.2681 C215.3648,39.0391 216.6808,38.3931 217.9848,38.7471 C219.3208,39.2301 219.9878,40.6291 219.5328,41.8861 L219.5328,41.8861 L215.3768,54.0331 C214.5708,56.3371 213.7558,58.6361 212.9338,60.9531 C211.5198,64.9421 210.0588,69.0661 208.6108,73.3021 C208.5868,73.6081 208.4958,73.8821 208.4198,74.1091 L208.4198,74.1091 L208.1418,74.7441 C206.1178,81.1531 205.8968,83.2641 205.8968,83.8711 C205.8968,85.0621 206.2108,86.4821 207.7068,86.4821 C212.7448,86.4821 216.4048,80.7461 220.3448,72.1291 C224.4348,58.3001 231.9188,52.0011 237.1468,52.0011 C240.2728,52.0011 242.6578,53.1001 244.2568,55.2731 C244.4488,54.7661 244.6358,54.2861 244.8118,53.8321 L244.8118,53.8321 L245.0878,53.1211 C245.4318,52.2001 246.3348,51.6011 247.3868,51.6011 C248.2038,51.6011 248.9268,51.9811 249.3678,52.6431 C249.8088,53.3051 249.8978,54.1621 249.5988,54.8791 L249.5988,54.8791 L244.7328,68.0221 C242.2668,74.9021 240.1368,80.8441 240.1368,83.8711 C240.1368,86.2851 240.8838,86.4821 241.7868,86.4821 C246.2478,86.4821 250.0228,78.0141 252.5208,72.4121 L252.5208,72.4121 L252.6358,72.0951 C252.6838,72.0001 252.7398,71.9151 252.7988,71.8321 L252.7988,71.8321 L253.4208,70.0741 C255.6368,63.8151 257.7298,57.9011 259.3218,53.5341 C259.6458,52.5621 260.5538,51.9201 261.6268,51.9201 C262.4368,51.9201 263.1938,52.3191 263.6528,52.9871 C263.8948,53.3401 264.0368,53.7431 264.0718,54.1521 C266.0638,52.6001 268.0278,51.8401 270.0268,51.8401 C275.4368,51.8401 278.2978,54.7001 278.2978,60.1111 C278.2978,63.9321 276.6018,68.5791 274.9628,73.0721 C273.4688,77.1671 272.0568,81.0351 272.0568,83.8711 C272.0568,86.2821 272.8378,86.4821 273.7078,86.4821 C276.8268,86.4821 279.5268,82.9331 284.4008,72.4261 C287.3408,62.2661 294.3568,52.0011 302.1058,52.0011 C306.7638,52.0011 309.6568,54.5561 309.6568,58.6701 C309.6568,68.8611 294.1768,73.6751 288.7188,75.0521 C288.2668,76.8021 288.0498,78.1901 287.9748,79.7471 C287.9028,81.7991 288.4128,83.4301 289.4898,84.5831 C290.5988,85.7701 292.2668,86.4091 294.4518,86.4821 C294.5508,86.4841 294.6508,86.4851 294.7498,86.4851 C300.8298,86.4851 305.6518,81.9151 309.8988,72.1321 C310.4938,70.9381 311.8558,70.4001 313.0828,70.8461 L313.0828,70.8461 L313.1628,70.8801 C314.0458,71.3231 314.6168,72.2141 314.6168,73.1511 C314.6168,73.4711 314.5308,73.7101 314.4628,73.9021 L314.4628,73.9021 L314.4188,74.0281 C309.0808,85.8631 302.7118,91.3411 294.3468,91.3411 C289.0638,91.3411 285.2248,88.7221 283.7618,84.2381 C280.5638,89.1971 277.4978,91.3411 273.7078,91.3411 C269.6918,91.3411 267.1968,88.4791 267.1968,83.8711 C267.1968,79.9011 268.8528,75.5171 270.4558,71.2761 C271.9888,67.2191 273.4368,63.3871 273.4368,60.1111 C273.4368,57.7841 272.3528,56.7011 270.0268,56.7011 C265.8668,56.7011 259.9098,66.6401 257.2088,73.8151 L257.2088,73.8151 L251.6138,89.6411 C251.1918,90.9061 249.8748,91.5981 248.5488,91.2351 C247.7468,90.9451 247.1948,90.3551 246.9718,89.6491 C245.3198,90.7731 243.5808,91.3411 241.7868,91.3411 C238.3858,91.3411 236.0768,89.2891 235.4488,85.8611 C232.4598,89.5001 229.2958,91.3411 226.0268,91.3411 C222.3128,91.3411 219.7188,88.8301 218.9548,84.6571 C215.5738,89.2071 211.9638,91.3411 207.7068,91.3411 C204.4908,91.3411 202.1248,89.4161 201.3298,86.3041 C197.0518,91.5321 191.8158,94.9701 185.0078,97.0411 C181.0528,108.1451 175.9628,113.8171 169.8778,113.9021 C169.8128,113.9031 169.7478,113.9031 169.6828,113.9031 C167.2188,113.9031 165.1138,113.1131 163.5868,111.6111 C162.0238,110.0741 161.1978,107.9231 161.1978,105.3921 C161.1978,99.5871 165.8208,95.9181 175.3328,94.1741 C177.6188,93.8081 179.4958,93.4341 181.2118,93.0041 L181.2118,93.0041 L182.2498,90.0151 C180.8068,90.8971 179.2858,91.3411 177.7078,91.3411 C172.1888,91.3411 169.9008,88.4981 168.9528,86.0751 C166.2048,89.7051 163.4348,91.3411 160.1088,91.3411 C156.0628,91.3411 153.5988,88.4791 153.5988,83.8711 C153.5988,82.1811 153.8538,80.5141 154.4268,78.4691 C154.71558,77.3110512 155.564266,74.5934546 156.483948,71.766434 L156.900948,70.4917829 C157.737931,67.947285 158.57302,65.4903439 159.0498,64.1781 C158.548935,64.0130189 158.086381,63.8601979 157.658009,63.7181194 L157.040569,63.512869 C153.977577,62.4920759 152.84353,62.0709378 151.7158,61.5431 C151.3678,62.3711 150.6508,63.9351 148.8118,67.9451 C147.8158,70.1191 146.4888,73.0141 144.7108,76.9031 C144.5998,77.1251 144.4738,77.3121 144.3168,77.4891 C141.1208,83.4461 137.5968,86.2211 133.2298,86.2211 C131.0668,86.2211 129.0298,85.5811 127.2928,84.3611 C123.8688,88.7451 119.7868,91.3411 116.2688,91.3411 C113.1538,91.3411 109.4988,90.1381 108.7138,84.7681 C105.3578,89.2421 101.7718,91.3411 97.5498,91.3411 C93.4968,91.3411 90.8788,88.4091 90.8788,83.8711 C90.8788,80.4621 93.1958,73.0011 95.4908,67.1181 L95.4908,67.1181 L99.2058,56.7011 L95.2288,56.7011 C93.8438,56.7011 92.7998,55.6561 92.7998,54.2711 C92.7998,52.9311 93.8898,51.8401 95.2288,51.8401 L95.2288,51.8401 L100.8718,51.8401 C101.6128,49.7891 104.6598,41.0451 104.8258,40.4741 C105.1688,39.4411 106.0768,38.8001 107.1498,38.8001 C107.9598,38.8001 108.7168,39.1991 109.1748,39.8661 C109.6238,40.5201 109.7268,41.3391 109.4498,42.0591 L109.4498,42.0591 L109.4318,42.0521 C109.4278,42.0761 109.4228,42.1001 109.4178,42.1251 C109.1978,43.2571 108.2888,45.7971 106.0648,51.8401 L106.0648,51.8401 L110.3498,51.8401 C111.6898,51.8401 112.7798,52.9311 112.7798,54.2711 C112.7798,55.6561 111.7348,56.7011 110.3498,56.7011 L110.3498,56.7011 L104.3338,56.7011 C104.065379,57.5008368 103.647373,58.6776512 103.056657,60.3284779 L102.811104,61.014319 C102.726146,61.2515127 102.638063,61.4973632 102.5468,61.7521 C101.8828,63.6061 101.0468,65.9371 100.0168,68.8421 C98.4536276,73.264169 97.4029451,76.4025661 96.7342411,78.7155436 L96.5967465,79.1987147 C95.9819451,81.3961131 95.7398,82.8008241 95.7398,83.8711 C95.7398,85.0621 96.0538,86.4821 97.5498,86.4821 C102.6018,86.4821 106.2718,80.7081 110.2278,72.0401 C111.3418,68.4081 113.0678,64.6891 115.4688,60.7601 C118.9068,55.0311 123.0298,52.0011 127.3898,52.0011 C132.7958,52.1641 136.1398,55.7321 136.1398,61.3111 C136.1398,66.3311 133.6598,74.0791 130.0738,80.3341 C130.8058,81.0241 131.8438,81.3611 133.2298,81.3611 C136.2178,81.3611 138.8458,78.4311 141.4988,72.1391 C141.5618,71.9691 141.6618,71.7861 141.7898,71.6131 L141.7898,71.6131 L146.7068,60.9171 L147.4358,59.0941 C144.8008,57.1031 143.5178,54.8131 143.5178,52.1101 C143.5178,48.2041 146.3508,46.1601 149.1488,46.1601 C152.4228,46.1601 154.5378,48.5271 154.5378,52.1911 C154.5378,53.3461 154.3098,54.0721 153.6988,56.0151 L153.6988,56.0151 L153.4178,56.9161 C155.2128,57.7531 157.2908,58.4631 159.1468,59.0981 L159.1468,59.0981 L160.0328,59.4021 C161.2858,59.7581 162.2678,60.0691 163.0858,60.3661 C164.3358,60.8211 164.9578,62.2531 164.5008,63.6281 C163.4788,66.2251 159.6318,77.6731 159.1588,79.6461 C158.6588,81.3961 158.5268,82.7301 158.4578,83.9151 C158.4588,86.4821 159.6148,86.4821 160.1088,86.4821 C163.3258,86.4821 166.1728,82.7911 170.6118,72.8661 C171.1408,71.4241 171.7768,69.7681 172.4988,67.8891 L172.4988,67.8891 L173.4068,65.5231 L177.8848,53.3711 C178.2288,52.4541 179.1208,51.8401 180.1078,51.8401 C180.9678,51.8401 181.7178,52.2131 182.1648,52.8641 C182.6068,53.5081 182.6988,54.3441 182.4088,55.1001 L182.4088,55.1001 L178.0128,67.2461 C177.0388,69.9251 176.2298,72.0531 175.5698,73.7911 C173.8778,78.2421 173.1778,80.0851 173.1778,82.0311 C173.1778,85.1091 174.5748,86.4821 177.7078,86.4821 C181.1148,86.4821 186.0988,79.2571 189.5588,69.3051 L189.5588,69.3051 L189.665647,68.9846472 C189.818073,68.5277728 189.937513,68.1716732 190.055254,67.830657 L190.133839,67.604607 C190.46309,66.6642066 190.832879,65.6932579 191.9138,62.8551 C192.6738,60.8591 193.7868,57.9381 195.4868,53.4451 C195.8398,52.5021 196.7538,51.8401 197.7078,51.8401 C198.4648,51.8401 199.2428,52.2681 199.7388,52.9551 C200.2128,53.6141 200.3448,54.4131 200.0998,55.1481 L200.0998,55.1481 L199.9638,55.5011 C198.6938,58.7531 196.5688,64.1961 194.0918,70.9301 L194.0918,70.9301 L187.0078,91.1771 C194.1998,88.2551 199.5368,82.3161 203.7198,72.6221 L203.7198,72.6221 L203.8718,72.1251 C205.3018,67.9401 206.8308,63.5981 208.3718,59.2191 C209.1688,56.9571 209.9688,54.6861 210.7588,52.4231 L210.7588,52.4231 Z M179.3708,98.3991 C178.3008,98.6261 177.2738,98.8371 176.2308,99.0111 C169.2928,100.2181 166.3438,102.0621 166.0548,105.3771 C166.0578,106.4761 166.4168,107.4401 167.0958,108.0991 C167.7648,108.7491 168.7238,109.0701 169.8458,109.0421 C173.6218,108.9721 176.8988,105.3001 179.3708,98.3991 Z M84.431,30 C86.068,30 87.472,30.566 88.491,31.635 C89.654,32.857 90.24,34.658 90.14,36.707 C89.891,41.608 86.382,45.652 80.709,47.637 C81.507,50.315 82.755,53.103 84.072,55.956 C86.467,61.21 89.181,67.161 89.181,73.551 C89.181,86.177 79.848,95.341 66.99,95.341 C56.164,95.341 48,87.625 48,77.391 C48,67.531 55.744,59.201 64.91,59.201 C71.611,59.201 76.861,64.59 76.861,71.471 C76.861,71.805 76.861,72.363 76.678,73.093 C76.424,73.984 75.574,74.861 74.431,74.861 C73.708,74.861 73.024,74.57 72.554,74.063 C72.093,73.566 71.869,72.909 71.923,72.214 C72.15,70.016 71.473,67.874 70.068,66.316 C68.757,64.861 66.925,64.061 64.91,64.061 C58.379,64.061 52.86,70.275 52.86,77.631 C52.86,85.077 58.904,90.482 67.231,90.482 C77.133,90.482 84.321,83.361 84.321,73.551 C84.321,68.208 81.965,63.01 79.687,57.983 C78.225,54.752 76.854,51.628 75.956,48.578 C74.876,48.646 73.787,48.7 72.59,48.7 C61.623,48.7 53.698,43.848 49.036,34.279 C48.91,33.922 48.8,33.591 48.8,33.15 C48.8,31.547 50.25,30.8 51.23,30.8 C52.186,30.8 52.984,31.301 53.421,32.174 C57.194,40.028 63.41,43.84 72.431,43.84 C73.367,43.84 74.213,43.797 75.041,43.739 C74.995,43.289 74.961,42.839 74.961,42.35 C74.961,36.279 78.503,30 84.431,30 Z M237.1468,56.8601 C230.3988,57.0071 223.7298,73.8281 223.5768,81.4061 C223.5768,85.9031 224.8428,86.4821 225.9468,86.4821 C230.09432,86.4821 233.59961,80.7875962 236.384013,74.682283 L236.702086,73.9763013 C237.804115,71.5010888 238.78808,68.99202 239.6488,66.7971 L239.6488,66.7971 L241.5098,61.8341 C241.3268,58.7621 239.6638,56.8601 237.1468,56.8601 Z M127.3088,56.8601 C124.8178,56.8601 122.1218,59.1431 119.7178,63.2871 C115.6468,70.0191 113.4988,76.6071 113.4988,82.3511 C113.4988,86.0531 115.0798,86.4821 116.2688,86.4821 C118.5158,86.4821 121.5338,84.1271 124.3858,80.1631 C123.6268,77.9511 123.7518,74.5961 124.3478,72.4691 C124.5558,71.4161 125.5488,70.6411 126.7488,70.6411 C127.5218,70.6411 128.2278,70.9891 128.6858,71.5961 C128.7338,71.6601 128.7788,71.7261 128.8198,71.7941 C130.3508,67.9581 131.2798,64.0541 131.2798,61.2311 C131.2798,58.4941 129.7948,56.8601 127.3088,56.8601 Z M302.1058,56.8601 C297.1028,56.8601 292.8348,64.6911 290.7338,69.3641 C297.4838,67.0871 304.7968,63.5041 304.7968,58.6701 C304.7968,57.5531 304.3468,56.8601 302.1058,56.8601 Z M149.1488,51.0211 C148.6008,51.0211 148.3778,51.2441 148.3778,51.7911 C148.3778,52.5521 148.6958,53.3781 149.2308,54.0791 C149.4548,53.3771 149.6788,52.5661 149.6788,52.1101 C149.6788,51.7831 149.6268,51.0211 149.1488,51.0211 Z M84.111,34.86 C81.239,34.86 79.901,39.282 79.901,42.27 C79.901,42.414 79.901,42.564 79.903,42.714 C84.9765849,40.5479623 85.263769,37.9369263 85.2800247,36.8489597 L85.2809639,36.7258404 L85.2809639,36.7258404 L85.281,36.67 C85.281,34.86 84.491,34.86 84.111,34.86 Z" id="Logo" fill="#FFFFFF"></path>
    </g>
</svg>